<svg xmlns="http://www.w3.org/2000/svg" xmlns:xlink="http://www.w3.org/1999/xlink" version="1.1" x="0px" y="0px" width="100px" height="100px" viewBox="0 0 100 100" enable-background="new 0 0 100 100" xml:space="preserve">
<g id="Your_Icon">
	<g>
		<path d="M78.026,25.716c-2.247,0.57-6.72,2.019-7.314,4.063c-0.574,1.972,0.216,3.979-1.138,5.69    c3.025-0.55,4.886-2.268,6.829-3.902C76.37,29.15,77.745,27.275,78.026,25.716z"/>
		<path d="M86.318,30.592c-5.059-0.018-8.803,1.275-10.891,4.226c3.746,1.349,6.634,0.747,8.938-1.138    C85.412,32.827,86.478,31.479,86.318,30.592z"/>
		<path d="M68.112,36.444c0.134-0.434-0.077-1.04,0-1.626c0.194-1.482,1.744-3.123,1.137-3.576c-5.284,0.78-7.76,3.543-7.476,9.917    C63.695,40.012,67.354,38.857,68.112,36.444z"/>
		<path d="M71.851,36.607c-1.779,0.594-2.88,2.493-4.389,3.088c5.114,1.218,11.235,1.135,13.168-2.926    C77.507,37.001,74.461,35.735,71.851,36.607z"/>
		<path d="M73.314,42.459c-2.2-0.206-3.907-1.104-5.853-1.3c-3.556-0.359-5.553,2.677-8.127,3.739    C64.465,46.329,70.688,46.037,73.314,42.459z"/>
		<path d="M53.156,49.611c2.38-0.194,4.407,1.095,6.34,0.976c2.438-0.151,3.927-2.338,5.689-3.414    c-2.353,0.973-4.097-0.626-5.851-0.813C56.63,46.073,55.365,48.703,53.156,49.611z"/>
		<path d="M64.212,73.344c-1.241-1.271-2.097-3.961-3.09-5.853c-3.155-6.001-6.613-12.511-9.267-18.042    c2.143-0.893,1.011-5.059,2.113-6.99c-2.389-0.616-4.367,1.2-5.526,1.788c-1.308-2.81-2.684-6.013-4.389-8.94    c-1.409-2.419-3.669-6.136-5.527-7.803c-5.366-4.815-14.806-1.505-18.855,1.789c-0.789,0.642-1.928,1.507-1.789,2.113    c4.042-2.299,11.021-4.151,15.118-1.138c1.388,1.021,2.461,3.12,3.576,4.877c3.301,5.198,6.959,11.187,8.941,16.744    c-2.244,1.912-5.274,3.354-7.966,5.202c-5.326,3.649-9.656,7.396-14.467,11.867c-1.841,1.707-9.128,7.345-3.576,8.938    c3.485-5.94,7.457-11.4,15.28-13.004c-2.37,4.676-4.545,10.411-5.039,16.418c0.682-1.124,1.262-2.116,2.113-3.089    c1.095-1.248,3.172-2.408,4.064-3.575c0.668-0.876,0.915-2.412,1.462-3.576c1.661-3.538,3.58-6.982,4.876-10.729    c-2.015-0.278-4.279,0.299-6.015,0.812c1.476-1.395,2.936-2.183,4.877-3.575c0.905-0.647,3.521-3.602,5.04-3.414    c1.058,0.134,2.592,3.525,3.25,4.716c2.21,3.991,3.646,6.563,5.69,10.239c1.001,1.802,1.749,3.918,2.764,5.202    c1.721,2.181,5.47,3.656,8.453,3.901c5.253,0.433,10.572-2.375,12.679-5.853C75.381,74.568,67.629,76.846,64.212,73.344z"/>
		<path d="M60.146,41.808c0.342-1.845-0.563-4.258,0.488-5.689c-1.695,1.679-4.614,1.742-5.365,4.226    c-0.557,1.838,0.112,3.966-0.976,6.015C56.679,46.064,59.751,43.948,60.146,41.808z"/>
		<path d="M83.976,16.025C74.931,6.981,62.907,2,50.116,2c-12.79,0-24.815,4.981-33.859,14.025    C7.213,25.069,2.232,37.093,2.232,49.884c0,12.791,4.981,24.815,14.025,33.857c9.044,9.046,21.069,14.026,33.859,14.026    c12.791,0,24.814-4.98,33.859-14.026C93.02,74.699,98,62.675,98,49.884C98,37.093,93.02,25.069,83.976,16.025z M50.116,95.303    c-25.043,0-45.417-20.376-45.417-45.419c0-25.043,20.374-45.417,45.417-45.417S95.535,24.84,95.535,49.884    C95.535,74.927,75.159,95.303,50.116,95.303z"/>
	</g>
</g>
</svg>